<?xml version="1.0" encoding="utf-8"?>
<!-- Generator: Adobe Illustrator 16.0.0, SVG Export Plug-In . SVG Version: 6.00 Build 0)  -->
<!DOCTYPE svg PUBLIC "-//W3C//DTD SVG 1.1//EN" "http://www.w3.org/Graphics/SVG/1.1/DTD/svg11.dtd">
<svg version="1.1" id="Layer_1" xmlns="http://www.w3.org/2000/svg" xmlns:xlink="http://www.w3.org/1999/xlink" x="0px" y="0px"
	 width="1450px" height="875px" viewBox="0 0 1450 875" enable-background="new 0 0 1450 875" xml:space="preserve">
<path fill="#F2ECDF" d="M0,0v254v621h466.5h683H1450V486V0H814.5h-495H0z M725.001,504.227c-17.571,0-33.557-6.792-45.474-17.894
	c-13.076-12.181-21.253-29.552-21.253-48.833c0-17.274,6.563-33.015,17.334-44.865c12.207-13.43,29.815-21.862,49.393-21.862
	c19.631,0,37.28,8.478,49.491,21.971c10.711,11.837,17.235,27.535,17.235,44.756c0,21.18-9.867,40.054-25.256,52.278
	C755.085,498.824,740.674,504.227,725.001,504.227z"/>
<g>
	<g>
		<path fill="#E8D3A2" d="M784.387,475.689l-0.769-0.494l-1.271-3.509l0.375-0.614C783.302,472.56,783.858,474.101,784.387,475.689z
			"/>
		<path fill="#E8D3A2" d="M790.431,479.582l-0.753-0.486c-1.273-4.411-2.659-8.434-4.668-12.336l0.313-0.649
			C787.505,470.324,789.113,474.763,790.431,479.582z"/>
		<path fill="#E8D3A2" d="M796.48,483.477l-0.75-0.481c-1.812-7.895-4.671-15.079-8.47-21.361l0,0l0.244-0.674
			C791.618,467.548,794.592,475.105,796.48,483.477z"/>
		<path fill="#E8D3A2" d="M802.519,487.365l-0.755-0.485c-1.896-10.725-6.01-20.46-11.173-28.397
			c-0.431-0.707-0.986-1.437-1.502-2.139l0.001-0.002l-0.005-0.005l3.383-1.472l-2.253-2.92l0.185-0.695
			c0.868,1.081,1.731,2.205,2.584,3.373c1.235-0.576,2.486-1.19,3.745-1.841c-1.749-2.266-3.709-4.407-5.577-6.359l0.113-0.711
			c2.013,2.076,4.041,4.348,5.99,6.795c1.193-0.677,2.347-1.401,3.535-2.16c-2.815-3.542-5.792-6.701-9.146-9.511l0.033-0.725
			c3.473,2.903,6.724,6.21,9.606,9.916c1.183-0.771,2.373-1.577,3.566-2.424c-3.027-3.787-6.762-7.194-10.111-10.116h0.912
			c3.218,2.842,6.737,6.121,9.698,9.76c1.23-0.854,2.378-1.755,3.451-2.702c-2.272-2.551-4.567-4.905-6.858-7.058h0.897
			c2.147,2.043,4.296,4.266,6.423,6.661c1.104-0.954,2.211-1.947,3.317-2.978c-1.14-1.277-2.286-2.506-3.432-3.684h0.883
			c1.008,1.044,2.01,2.127,3.014,3.25c1.105-1.041,2.211-2.123,3.315-3.242l-0.009-0.008h0.873l-0.003,0.025
			c-8.388,8.761-17.561,15.218-27.279,19.088c0.838,1.105,1.55,2.212,2.228,3.349c8.6-3.32,17.132-8.593,24.727-15.722l-0.055,0.989
			c-7.582,6.881-15.875,11.997-24.381,15.216c0.695,1.159,1.38,2.356,2.051,3.591c7.375-2.676,14.747-6.733,21.488-12.12
			l-0.151,0.982c-6.672,5.157-13.851,9.058-21.059,11.655c0.646,1.234,1.37,2.545,1.917,3.822
			c5.894-2.139,12.091-5.021,17.778-8.876l-0.245,0.964c-5.506,3.666-11.581,6.404-17.306,8.448l1.594,3.976
			c4.747-1.449,9.212-3.494,13.824-5.949l-0.341,0.936c-4.362,2.324-8.738,4.203-13.27,5.588l1.473,4.212
			c3.055-0.99,6.192-2.154,9.393-3.493l-0.427,0.897c-2.985,1.221-5.912,2.286-8.77,3.2c0.404,1.413,0.752,2.843,1.102,4.313
			c1.555-0.44,3.183-0.891,4.732-1.435l-0.482,0.869l-4.106,1.186l0.869,4.156L802.519,487.365z"/>
	</g>
	<g>
		<path fill="#E8D3A2" d="M754.28,501.774l-0.382-0.83l0.828-3.628l0.651-0.308C755.063,498.567,754.697,500.158,754.28,501.774z"/>
		<path fill="#E8D3A2" d="M757.271,508.311l-0.375-0.814c1.335-4.348,2.295-8.551,2.729-12.895l0.617-0.374
			C759.789,498.926,758.787,503.599,757.271,508.311z"/>
		<path fill="#E8D3A2" d="M760.262,514.854l-0.369-0.809c2.74-7.604,4.208-15.194,4.395-22.552l0,0l0.578-0.432
			C764.77,498.844,763.197,506.81,760.262,514.854z"/>
		<path fill="#E8D3A2" d="M763.251,521.386l-0.375-0.815c4.238-9.973,5.93-20.519,5.939-29.913l-0.13-2.645h0.003v-0.007
			l3.662,0.606l-0.295-3.658l0.501-0.519c0.213,1.45,0.265,2.802,0.361,4.258c1.351,0.181,2.772,0.378,4.143,0.468
			c-0.297-2.906-0.708-5.695-1.215-8.351l0.488-0.529c0.549,2.82,0.987,5.798,1.296,8.91l4.16,0.115
			c-0.369-4.438-1.32-8.842-2.511-12.932l0.435-0.58c1.211,4.211,2.304,8.879,2.668,13.516l4.34-0.079
			c-0.706-4.99-1.597-9.585-3.108-14.039l0.769,0.495c1.445,4.314,2.229,8.69,2.958,13.521c1.438-0.098,2.85-0.269,4.309-0.448
			c-0.544-3.386-0.986-6.464-1.978-9.667l0.753,0.484c0.912,3.025,1.332,5.931,1.833,9.104l4.448-0.671
			c-0.219-1.66-0.556-3.341-0.979-5.017l0.747,0.481c0.347,1.469,0.675,2.973,0.862,4.426c1.541-0.245,2.984-0.604,4.449-0.993
			l-0.001-0.012l0.733,0.472l-0.013,0.022c-11.733,2.858-22.885,3.373-33.24,1.302c0.07,1.34,0.152,2.757,0.086,4.054
			c8.966,1.767,19.092,2.069,29.286,0.145l-0.596,0.794c-10.028,1.733-19.87,1.434-28.709-0.377l-0.227,4.113
			c7.702,1.776,16.018,2.278,24.636,1.445l-0.667,0.734c-8.368,0.745-16.536,0.121-24.014-1.597l-0.438,4.275
			c6.117,1.367,12.857,2.268,19.75,2.139l-0.733,0.67c-6.636,0.07-13.19-0.881-19.114-2.234l-0.814,4.19
			c4.797,1.365,9.611,1.988,14.854,2.473l-0.791,0.597c-4.959-0.46-9.615-1.171-14.19-2.473l-1.041,4.325
			c3.115,0.824,6.388,1.551,9.812,2.161l-0.847,0.52c-3.177-0.595-6.223-1.289-9.126-2.069c-0.381,1.485-0.894,2.812-1.388,4.249
			c1.543,0.459,3.189,1.015,4.75,1.32l-0.855,0.507l-4.105-1.231l-1.518,3.955L763.251,521.386z"/>
	</g>
	<g>
		<path fill="#E8D3A2" d="M714.863,507.41l0.131-0.905l2.646-2.526l0.714,0.082C717.242,505.235,716.084,506.293,714.863,507.41z"/>
		<path fill="#E8D3A2" d="M713.851,514.526l0.127-0.889c3.447-2.742,6.566-6.141,9.272-9.338l0.721,0.041
			C721.057,507.789,717.647,511.554,713.851,514.526z"/>
		<path fill="#E8D3A2" d="M712.834,521.649l0.125-0.88c6.398-4.876,11.756-10.496,15.905-16.588l0,0l0.721-0.035
			C725.276,510.533,719.636,516.553,712.834,521.649z"/>
		<path fill="#E8D3A2" d="M711.82,528.76l0.126-0.889c8.939-6.178,16.076-13.925,21.173-21.978l1.325-2.268v0.004l0.005-0.008
			l2.754,2.531c0.605-1.101,1.202-2.079,1.724-3.258l0.696-0.183c-0.598,1.355-1.268,2.611-1.987,3.823
			c1.046,0.923,2.123,1.825,3.215,2.589c1.325-2.589,2.488-5.134,3.499-7.622l0.693-0.198c-1.052,2.697-2.308,5.379-3.731,8.156
			c1.11,0.8,2.256,1.595,3.442,2.378c2.1-3.885,3.643-8.218,4.87-12.222l0.679-0.249c-1.272,4.117-2.841,8.75-5.051,12.797
			c1.194,0.779,2.431,1.557,3.7,2.304c2.067-4.693,3.857-8.863,4.946-13.529l0.38,0.83c-1.074,4.5-2.819,8.482-4.803,12.979
			c1.255,0.663,2.543,1.315,3.87,1.952c1.395-3.091,2.646-5.999,3.547-9.208l0.375,0.815c-0.874,3.015-2.05,5.772-3.368,8.658
			l4.119,1.854c0.721-1.496,1.302-3.187,1.873-4.776l0.368,0.807c-0.517,1.385-1.021,2.899-1.649,4.222
			c1.43,0.629,2.811,1.033,4.272,1.534l0.005-0.012l0.363,0.793l-0.025,0.013c-11.407-3.85-21.104-9.548-28.662-16.888
			c-0.668,1.163-1.374,2.333-2.117,3.509c6.554,6.245,14.931,12.104,24.551,15.936l-0.933,0.342
			c-9.378-3.894-17.519-9.636-23.936-15.795c-0.771,1.089-1.579,2.182-2.429,3.28c5.511,5.646,12.216,10.574,19.939,14.567
			l-0.962,0.251c-7.462-3.934-13.973-8.818-19.332-14.361c-0.857,1.099-1.753,2.2-2.688,3.302
			c4.417,4.651,9.567,8.878,15.452,12.592l-0.983,0.152c-5.639-3.591-10.6-7.823-14.861-12.283
			c-0.946,1.139-1.929,2.169-2.951,3.149c3.285,3.667,7.006,6.809,11.143,10.142l-0.99,0.065c-3.917-3.243-7.445-6.173-10.581-9.788
			c-1.03,1.004-2.102,2.005-3.212,3.004c2.17,2.362,4.526,5.025,7.067,7.129l-0.991,0.045c-2.343-2.125-4.524-4.51-6.542-6.755
			c-1.12,0.992-2.279,2.001-3.471,2.967c1.05,1.196,2.147,2.36,3.287,3.54l-0.99-0.052c-0.964-1.046-1.904-1.993-2.797-3.117
			l-3.4,2.433L711.82,528.76z"/>
	</g>
	<g>
		<path fill="#E8D3A2" d="M678.66,490.894l0.599-0.69c1.23-0.219,2.372-0.376,3.616-0.714l0.579,0.429
			C681.836,490.355,680.258,490.657,678.66,490.894z"/>
		<path fill="#E8D3A2" d="M673.951,496.325l0.586-0.679c4.396-0.454,8.897-1.66,12.829-2.794l0.605,0.389
			C683.651,494.591,678.807,495.812,673.951,496.325z"/>
		<path fill="#E8D3A2" d="M669.238,501.759l0.583-0.67c8.041-0.637,15.615-2.533,22.337-5.313l0,0l0.612,0.38
			C685.759,499.09,677.733,501.161,669.238,501.759z"/>
		<path fill="#E8D3A2" d="M664.532,507.187l0.587-0.678c10.94-0.47,20.995-2.869,29.723-7.074l2.317-1.141l0.001,0.001l0.006-0.001
			c0.283,1.197,0.565,2.48,0.93,3.652l3.256-1.924l0.675,0.248c-1.211,0.748-2.465,1.483-3.763,2.204l1.336,3.848
			c2.5-1.424,4.801-2.768,7.059-4.532l0.697,0.179c-2.392,1.869-4.892,3.445-7.552,4.9c0.49,1.303,1.018,2.616,1.583,3.946
			c3.928-2.368,7.508-4.934,10.71-7.689l0.718,0.101c-3.355,3.057-7.042,5.561-11.188,8.147c0.586,1.294,1.239,2.506,1.914,3.783
			c4.215-2.543,8.028-5.417,11.454-8.656l-0.13,0.904c-3.321,3.086-7.003,5.865-11.038,8.28c0.689,1.265,1.416,2.54,2.182,3.823
			c2.803-1.656,5.511-3.874,7.969-5.876l-0.127,0.888c-2.327,1.856-4.889,3.964-7.519,5.522c0.77,1.313,1.592,2.564,2.47,3.735
			c1.436-0.993,2.822-2.001,4.158-3.014l-0.125,0.876c-1.184,0.888-2.405,1.766-3.667,2.639c0.883,1.206,1.805,2.412,2.766,3.623
			l0.011-0.008l-0.123,0.865l-0.026-0.006c-7.58-9.167-12.549-19.621-15.012-29.653l-3.639,1.73
			c1.998,9.144,6.085,18.046,12.019,26.779l-0.964-0.241c-5.742-8.49-9.612-17.426-11.584-26.305
			c-1.256,0.544-2.599,1.161-3.87,1.566c1.63,7.659,4.59,15.409,8.918,23.045l-0.941-0.32c-4.13-7.465-6.958-15.049-8.518-22.541
			l-4.01,1.261c1.141,6.375,3.286,12.594,6.186,18.962l-0.933-0.348c-2.707-6.258-4.741-12.256-5.828-18.447l-4.235,1.121
			c0.955,4.58,2.07,9.771,3.96,14.449l-0.895-0.434c-1.686-4.602-2.796-9.439-3.66-13.885l-4.294,0.736
			c0.443,3.312,1.149,6.572,2.106,9.792l-0.848-0.515c-0.875-2.986-1.441-6.13-1.872-9.183l-4.502,0.571
			c0.236,1.575,0.508,3.177,0.817,4.801l-0.796-0.598l-0.665-4.133c-1.438,0.177-2.772,0.177-4.194,0.229L664.532,507.187z"/>
	</g>
	<g>
		<path fill="#E8D3A2" d="M657.1,457.411l0.875-0.257c1.093,0.499,2.257,0.942,3.464,1.335l0.249,0.673
			C660.143,458.645,658.529,458.085,657.1,457.411z"/>
		<path fill="#E8D3A2" d="M650.201,459.433l0.861-0.252c4.046,1.958,8.347,3.421,12.32,4.563l0.315,0.646
			C659.235,463.238,654.676,461.589,650.201,459.433z"/>
		<path fill="#E8D3A2" d="M643.297,461.458l0.853-0.251c7.146,3.81,14.523,6.293,21.667,7.584v0.002l0.314,0.646
			C658.646,468.132,650.806,465.543,643.297,461.458z"/>
		<path fill="#E8D3A2" d="M636.404,463.478l0.861-0.252c9.535,5.508,19.209,8.934,28.857,10.091l2.557,0.295v0.001l0.008,0.003
			c-0.423,1.17-0.869,2.398-1.159,3.561l3.766,0.153l0.43,0.578l-4.34-0.195l-0.968,3.978c2.817,0.198,5.576,0.233,8.404-0.001
			l0.484,0.535c-2.981,0.236-6.029,0.285-9.015,0.039l-0.815,4.189c4.686,0.042,8.909-0.008,13.216-0.703l0.541,0.482
			c-4.563,0.83-8.911,0.834-13.832,0.796l-0.433,4.218c4.872,0.184,9.738-0.267,14.298-1.048l-0.599,0.691
			c-4.38,0.703-9.086,1.144-13.75,0.959l-0.256,4.415c3.324,0.047,6.744-0.289,9.884-0.623l-0.586,0.678
			c-2.973,0.306-6.153,0.573-9.318,0.572c-0.064,1.52,0.035,2.929,0.09,4.438l5.096-0.247l-0.581,0.672l-4.484,0.201l0.334,4.571
			h0.013l-0.572,0.658l-0.021-0.016c-1.414-11.798,0.143-23.341,3.415-33.079l-3.983-0.519c-3.285,8.808-4.572,18.447-4.392,29.054
			l-0.67-0.732c-0.125-10.315,1.28-19.806,4.493-28.409c-1.351-0.222-2.779-0.445-4.127-0.759
			c-2.708,7.303-4.467,15.479-4.897,24.182l-0.662-0.741c0.588-8.525,2.295-16.43,5.005-23.578l-4.04-1.107
			c-2.495,5.987-4.033,12.388-5.01,19.293l-0.592-0.799c1.076-6.704,2.592-12.86,5.032-18.666l-4.155-1.348
			c-1.706,4.391-3.538,9.353-4.47,14.311l-0.515-0.852c0.988-4.745,2.767-9.473,4.398-13.662c-1.372-0.51-2.663-1.095-4.02-1.693
			c-1.441,3.038-2.519,6.126-3.502,9.383l-0.43-0.897c0.895-2.995,2.027-5.914,3.369-8.743c-1.348-0.616-2.708-1.27-4.079-1.959
			c-0.659,1.457-1.301,2.956-1.924,4.492l-0.343-0.933l1.69-3.852c-1.286-0.637-2.528-1.32-3.692-2.066L636.404,463.478z"/>
	</g>
	<g>
		<path fill="#E8D3A2" d="M657.1,417.565l0.875,0.258l2.235,3.01l-0.181,0.694C659.043,420.264,658.063,418.942,657.1,417.565z"/>
		<path fill="#E8D3A2" d="M650.201,415.543l0.861,0.252c2.549,3.889,4.904,7.326,7.982,10.51l-0.108,0.711
			C655.596,423.585,652.911,419.811,650.201,415.543z"/>
		<path fill="#E8D3A2" d="M643.297,413.519l0.853,0.25c3.978,7.071,8.807,13.137,14.167,18.096l0,0l-0.034,0.721
			C652.529,427.416,647.484,421.027,643.297,413.519z"/>
		<path fill="#E8D3A2" d="M636.404,411.498l0.861,0.253c4.991,9.786,11.442,17.895,18.814,24.094l1.943,1.634l-0.002,0.001
			l0.007,0.004l-2.786,2.37l3.031,2.174l0.032,0.723c-1.154-0.799-2.317-1.64-3.482-2.522c-1.009,0.903-2.018,1.843-3.024,2.823
			c2.168,1.704,4.7,3.201,7.091,4.549l0.106,0.71c-2.495-1.429-5.318-3.014-7.62-4.847c-1.019,0.99-2.025,2.018-2.89,3.069
			c3.891,2.581,7.371,4.84,11.46,6.563l0.187,0.699c-4.243-1.775-8.026-4.097-12.024-6.818c-0.901,1.069-1.798,2.174-2.689,3.319
			c3.927,2.803,8.417,5.027,12.564,6.856l-0.876,0.256c-3.953-1.797-8.31-3.939-12.061-6.632c-0.889,1.154-1.771,2.349-2.646,3.579
			c2.918,1.809,5.833,3.411,8.67,4.824l-0.861,0.252c-2.669-1.349-5.39-2.867-8.143-4.565c-0.775,1.222-1.542,2.481-2.297,3.78
			c1.474,0.902,2.938,1.757,4.389,2.56l-0.852,0.251c-1.275-0.717-2.561-1.473-3.854-2.267c-0.75,1.309-1.492,2.654-2.218,4.037
			l0.011,0.008l-0.836,0.244l-0.008-0.025c5.287-10.742,12.796-19.533,20.734-25.981c-0.997-0.828-1.998-1.69-2.998-2.593
			c-7.43,5.636-13.934,13.036-19.412,22.045l-0.231-0.966c5.546-8.764,11.881-15.955,19.224-21.461
			c-1.008-0.919-2.016-1.876-3.022-2.872c-6.289,4.675-12.171,10.6-17.23,17.666l-0.146-0.984
			c5.061-6.827,10.803-12.552,16.955-17.1c-1.037-1.01-1.995-2.049-2.862-3.119c-5.063,3.705-10.27,8.233-14.583,13.506
			l-0.049-0.992c4.301-5.041,9.259-9.397,14.255-12.967c-0.9-1.084-1.795-2.205-2.683-3.367c-4.094,2.747-7.947,5.951-11.547,9.606
			l0.05-0.99c3.43-3.453,7.255-6.48,11.125-9.104c-0.881-1.169-1.778-2.382-2.622-3.623c-2.652,1.814-5.293,3.823-7.966,6.018
			l0.146-0.983c2.521-2.015,4.931-3.883,7.496-5.551c-0.773-1.239-1.534-2.517-2.285-3.83c-1.375,0.864-2.755,1.77-4.145,2.721
			l0.243-0.966l3.586-2.308l-2.03-3.746V411.498z"/>
	</g>
	<g>
		<path fill="#E8D3A2" d="M678.66,384.083l0.599,0.691l0.23,3.723l-0.536,0.483C678.817,387.387,678.719,385.755,678.66,384.083z"/>
		<path fill="#E8D3A2" d="M673.951,378.653l0.586,0.678c-0.037,4.569,0.195,8.85,1.005,13.15l-0.485,0.532
			C674.167,388.367,673.846,383.626,673.951,378.653z"/>
		<path fill="#E8D3A2" d="M669.238,373.219l0.583,0.67c-0.475,8.078,0.239,15.773,2.116,22.887l-0.002,0.001l-0.429,0.576
			C669.418,389.857,668.7,381.775,669.238,373.219z"/>
		<path fill="#E8D3A2" d="M664.532,367.792l0.587,0.677c-1.219,10.788,0.06,21.339,2.71,30.384l0.86,2.495h-0.002l0.002,0.008
			l-3.678,0.446l1.315,3.431l-0.352,0.626c-0.577-1.311-1.036-2.608-1.53-3.976c-1.353,0.202-2.743,0.427-4.121,0.705
			c1.111,2.71,2.296,5.272,3.539,7.675l-0.317,0.647c-1.327-2.555-2.593-5.287-3.773-8.191l-4.016,1.063
			c1.618,4.161,3.727,8.097,6.065,11.694l-0.247,0.679c-2.395-3.706-4.717-7.857-6.386-12.207l-4.134,1.301
			c2.022,4.565,4.292,8.762,6.926,12.577l-0.875-0.258c-2.53-3.7-4.635-7.717-6.635-12.121c-1.406,0.476-2.663,1.058-4.023,1.639
			c1.482,3.101,2.813,5.938,4.62,8.714l-0.86-0.253c-1.699-2.629-2.929-5.302-4.32-8.211c-1.342,0.599-2.697,1.236-4.064,1.911
			c0.716,1.543,1.431,3.032,2.333,4.527l-0.852-0.25c-0.783-1.32-1.438-2.645-2.052-3.994c-1.385,0.68-2.753,1.406-4.015,2.205
			l0.006,0.011l-0.837-0.246l0.008-0.025c10.466-6.074,21.039-9.686,31.531-10.614c-0.461-1.277-0.905-2.592-1.21-3.86
			c-9.122,0.799-18.895,3.368-28.151,8.098l0.344-0.933c9.155-4.496,18.652-6.988,27.667-7.71l-0.941-4.017
			c-7.858,0.473-16.048,2.282-24.048,5.538l0.431-0.896c7.831-3.074,15.843-4.761,23.497-5.216c-0.279-1.375-0.563-2.803-0.772-4.22
			c-6.26,0.395-12.987,1.419-19.559,3.485l0.514-0.85c6.344-1.939,12.908-2.858,18.979-3.214l-0.401-4.258
			c-4.973,0.044-9.796,0.776-14.944,1.796l0.593-0.797c4.871-0.964,9.561-1.565,14.308-1.606l-0.223-4.448
			c-3.215,0.086-6.557,0.311-10.008,0.688l0.665-0.739c3.21-0.323,6.324-0.513,9.325-0.585c-0.021-1.5,0.069-2.942,0.143-4.457
			c-1.611-0.009-3.324-0.06-4.933,0.059l0.691-0.711l4.279,0.021l0.333-4.226L664.532,367.792z"/>
	</g>
	<g>
		<path fill="#E8D3A2" d="M714.863,367.567l0.131,0.905l-1.828,3.218l-0.711,0.102C713.203,370.397,714.007,368.987,714.863,367.567
			z"/>
		<path fill="#E8D3A2" d="M713.851,360.45l0.127,0.889c-2.53,3.699-4.62,7.563-6.271,11.575l-0.696,0.178
			C708.783,368.77,711.046,364.469,713.851,360.45z"/>
		<path fill="#E8D3A2" d="M712.834,353.328l0.125,0.88c-4.787,6.461-8.351,13.364-10.593,20.369l-0.001,0.001l-0.674,0.247
			C703.962,367.387,707.735,360.154,712.834,353.328z"/>
		<path fill="#E8D3A2" d="M711.82,346.217l0.126,0.889c-6.888,8.333-11.516,17.979-14.149,27.001l-0.62,2.568l-0.002-0.001
			l-0.002,0.008l-3.343-1.624l-0.749,3.582l-0.616,0.374c0.183-1.485,0.525-2.769,0.842-4.195c-1.241-0.545-2.568-1.171-3.837-1.606
			c-0.532,2.872-0.922,5.658-1.183,8.343l-0.619,0.369c0.268-2.855,0.684-5.829,1.264-8.899l-3.964-1.286
			c-0.897,4.35-1.199,8.875-1.22,13.111l-0.58,0.433c0.031-4.36,0.274-9.177,1.231-13.716l-4.192-1.15
			c-0.699,5.021-1.168,9.631-0.945,14.36l-0.598-0.688c-0.199-4.581,0.309-8.949,0.942-13.82l-4.254-0.77
			c-0.44,3.388-0.854,6.492-0.81,9.836l-0.586-0.677c-0.021-3.149,0.367-6.084,0.789-9.253l-4.462-0.607
			c-0.261,1.649-0.382,3.385-0.46,5.096l-0.581-0.67c0.092-1.491,0.173-3.055,0.404-4.498c-1.554-0.202-3.014-0.234-4.542-0.287
			l-0.002,0.012l-0.572-0.659l0.02-0.019c12.047,0.533,22.921,3.178,32.26,8.089c0.317-1.287,0.624-2.701,1.048-3.933
			c-8.076-4.189-17.739-7.358-28.058-8.353l0.795-0.593c10.105,1.13,19.495,4.219,27.44,8.417l1.382-3.867
			c-6.894-3.908-14.717-6.68-23.239-8.321l0.848-0.515c8.241,1.627,15.909,4.505,22.602,8.292c0.507-1.309,1.05-2.631,1.631-3.966
			c-5.499-3.089-11.697-5.813-18.364-7.64l0.896-0.435c6.397,1.794,12.42,4.573,17.712,7.515c0.617-1.255,1.277-2.505,1.97-3.775
			c-4.223-2.702-8.645-4.576-13.563-6.573l0.933-0.347c4.652,1.894,8.894,3.809,12.922,6.39c0.706-1.269,1.449-2.548,2.23-3.833
			c-2.753-1.676-5.707-3.352-8.809-4.87l0.953-0.278c2.885,1.481,5.614,3.023,8.185,4.608c0.785-1.324,1.634-2.529,2.525-3.719
			c-1.362-0.944-2.756-1.821-4.171-2.575l0.964-0.242c1.207,0.66,2.422,1.541,3.582,2.313l2.578-3.337L711.82,346.217z"/>
	</g>
	<g>
		<path fill="#E8D3A2" d="M754.28,373.203l-0.382,0.83c-1.116,0.556-2.174,1.052-3.255,1.688l-0.677-0.245
			C751.399,374.585,752.802,373.908,754.28,373.203z"/>
		<path fill="#E8D3A2" d="M757.271,366.666l-0.375,0.815c-4.067,1.624-8.066,4.118-11.514,6.314l-0.677-0.238
			C748.435,371.123,752.78,368.455,757.271,366.666z"/>
		<path fill="#E8D3A2" d="M760.262,360.122l-0.369,0.809c-7.534,2.872-14.26,6.812-19.92,11.419l0,0l-0.695-0.183
			C745.169,367.327,752.275,363.086,760.262,360.122z"/>
		<path fill="#E8D3A2" d="M763.251,353.591l-0.375,0.815c-10.36,3.474-19.343,8.703-26.51,15.176l-1.902,1.771l-0.001-0.002
			l-0.007,0.005l-1.928-3.253c-0.883,0.829-1.755,1.839-2.582,2.75l-0.721-0.035c0.953-1.071,1.956-2.16,2.995-3.21
			c-0.752-1.108-1.546-2.183-2.377-3.284c-2,2.108-3.837,4.087-5.511,6.297l-0.722,0.041c1.774-2.519,3.735-4.512,5.884-6.799
			c-0.843-1.097-1.721-2.196-2.638-3.297c-3.106,3.131-5.817,6.958-8.14,10.34l-0.724,0.045c2.396-3.564,5.222-7.473,8.476-10.848
			c-0.929-1.124-1.895-2.203-2.899-3.172c-3.312,3.823-6.208,7.38-8.575,11.546l-0.13-0.904c2.311-3.988,5.104-7.418,8.282-11.062
			c-1.015-1.004-2.07-2.007-3.163-3.006c-2.218,2.454-4.225,5.054-6.007,7.839l-0.127-0.89c1.7-2.603,3.589-5.078,5.675-7.368
			c-1.104-0.996-2.244-1.99-3.423-2.98c-1.101,1.351-2.146,2.744-3.142,4.106l-0.126-0.878c0.886-1.2,1.811-2.405,2.774-3.615
			c-1.181-0.889-2.401-1.772-3.659-2.648l-0.009,0.01l-0.122-0.864l0.026-0.004c9.831,6.78,17.531,15.189,22.748,24.257
			c0.967-0.911,1.967-1.817,3.007-2.718c-4.523-8.01-10.953-15.757-19.071-22.25l0.992-0.053
			c7.866,6.349,14.101,14.138,18.521,21.922c1.065-0.94,2.15-1.791,3.26-2.558c-3.728-6.894-8.774-13.501-15.056-19.562l0.991,0.045
			c6.046,5.923,10.921,12.436,14.532,19.184c1.126-0.797,2.289-1.587,3.491-2.366c-2.906-5.794-6.721-11.102-11.301-16.468
			l0.987,0.109c4.378,5.216,8.015,10.423,10.819,16.035c1.207-0.765,2.472-1.569,3.741-2.271c-2.194-4.177-4.776-8.697-7.891-12.752
			l0.984,0.154c2.894,4.054,5.378,8.207,7.437,12.322c1.269-0.658,2.572-1.304,3.914-1.934c-1.376-3.013-2.95-6.018-4.794-8.806
			l0.964,0.25c1.691,2.591,3.099,5.533,4.395,8.292l4.163-1.833c-0.674-1.44-1.392-2.895-2.149-4.361l0.936,0.343l1.813,3.769
			c1.316-0.54,2.604-0.931,3.956-1.38L763.251,353.591z"/>
	</g>
	<g>
		<path fill="#E8D3A2" d="M784.387,399.287l-0.769,0.496c-1.227-0.147-2.396-0.292-3.68-0.321l-0.433-0.575
			C781.175,398.924,782.806,399.056,784.387,399.287z"/>
		<path fill="#E8D3A2" d="M790.431,395.394l-0.753,0.486c-4.37-0.778-9.003-0.903-13.095-0.919l-0.485-0.531
			C780.654,394.324,785.598,394.546,790.431,395.394z"/>
		<path fill="#E8D3A2" d="M796.48,391.5l-0.75,0.482c-7.904-1.643-15.701-1.94-22.93-1.174l0,0l-0.479-0.536
			C779.871,389.438,788.147,389.694,796.48,391.5z"/>
		<path fill="#E8D3A2" d="M802.519,387.611l-0.755,0.485c-10.657-2.605-20.949-3.133-30.521-1.557l-2.542,0.437v-0.001h-0.007
			c0.063-1.227,0.172-2.56,0.12-3.75l-3.661,0.911l-0.576-0.431c1.374-0.371,2.78-0.717,4.226-1.038l-0.188-4.082
			c-2.772,0.618-5.411,1.329-8.063,2.356l-0.615-0.375c2.807-1.084,5.699-1.957,8.639-2.565l-0.397-4.245
			c-4.489,1.241-8.561,2.533-12.475,4.374l-0.655-0.307c4.137-2.074,8.31-3.296,13.051-4.656l-0.772-4.164
			c-4.734,1.203-9.259,2.972-13.427,5.036l0.381-0.831c4.019-1.938,8.39-3.654,12.925-4.795l-0.998-4.303
			c-3.186,0.853-6.396,2.173-9.311,3.376l0.374-0.816c2.762-1.126,5.761-2.314,8.78-3.168c-0.353-1.499-0.85-2.818-1.329-4.246
			c-1.654,0.535-3.264,1.096-4.828,1.678l0.368-0.806l4.254-1.464l-1.614-4.285l-0.012,0.004l0.364-0.793l0.022,0.012
			c4.686,10.931,6.437,22.421,6.016,32.707l3.978-0.626c0.676-9.38-0.784-18.989-3.948-29.11l0.851,0.511
			c3.047,9.837,4.308,19.393,3.669,28.524c1.354-0.16,2.813-0.372,4.163-0.421c0.569-7.795-0.054-16.106-2.068-24.598l0.831,0.542
			c1.829,8.342,2.408,16.401,1.807,24.035l4.198-0.081c0.696-6.439,0.392-13.018-0.603-19.922l0.794,0.598
			c0.843,6.741,1.101,13.08,0.404,19.328l4.375,0.115c0.377-4.671,0.767-9.966,0.265-14.979l0.733,0.67
			c0.353,4.858,0.012,9.856-0.38,14.341l4.322,0.499c0.514-3.309,0.724-6.613,0.728-9.987l0.668,0.735
			c-0.01,3.117-0.32,6.27-0.778,9.336l4.477,0.715l0.567-4.841l0.595,0.794l-0.527,4.16c1.429,0.237,2.739,0.591,4.101,0.951
			L802.519,387.611z"/>
	</g>
	<g>
		<path fill="#E8D3A2" d="M795.658,437.488h-0.911l-3.039-2.266l-0.039-0.72C792.996,435.442,794.324,436.437,795.658,437.488z"/>
		<path fill="#E8D3A2" d="M802.847,437.488h-0.898c-3.582-3.014-6.93-5.658-10.621-7.867l-0.109-0.711
			C795.375,431.266,798.912,434.167,802.847,437.488z"/>
		<path fill="#E8D3A2" d="M810.04,437.488h-0.889c-5.872-5.666-12.189-10.136-18.662-13.412l-0.002-0.001l-0.175-0.697
			C797.219,426.743,803.851,431.462,810.04,437.488z"/>
		<path fill="#E8D3A2" d="M817.225,437.488h-0.898c-7.754-7.941-15.89-14-24.877-17.829l-2.354-1.009l0.001-0.001l-0.008-0.003
			c0.779-1.016,1.468-2.039,2.093-3.075l-3.555-1.211l-0.243-0.677c1.345,0.431,2.71,0.9,4.091,1.413
			c0.701-1.145,1.39-2.326,2.067-3.542c-2.609-1.001-5.299-1.786-8.066-2.359l-0.313-0.649c2.895,0.623,5.887,1.409,8.663,2.493
			c0.66-1.222,1.357-2.504,1.953-3.783c-4.494-1.356-8.511-2.516-12.872-3.038l-0.382-0.616c4.601,0.488,8.8,1.688,13.486,3.122
			l1.614-3.929c-4.609-1.554-9.442-2.467-14.01-3.011l0.768-0.495c4.374,0.567,9.051,1.442,13.458,2.94l1.496-4.171
			c-3.212-0.96-6.556-1.62-9.666-2.176l0.755-0.485c2.942,0.537,6.037,1.192,9.109,2.064c0.452-1.42,0.781-2.818,1.146-4.279
			c-1.676-0.444-3.327-0.844-4.953-1.198l0.747-0.482l4.352,1.07l0.969-4.487l-0.01-0.002l0.732-0.472l0.016,0.023
			c-1.969,11.739-6.706,22.373-12.583,30.771l3.653,1.627c5.636-7.506,9.619-16.402,12.416-26.639l0.446,0.887
			c-2.814,9.961-6.782,18.65-12.346,25.999c1.242,0.592,2.495,1.224,3.757,1.893c4.64-6.226,8.67-13.58,11.519-21.813l0.427,0.898
			c-2.92,8.008-6.861,15.124-11.428,21.199c1.169,0.697,2.346,1.434,3.532,2.21c4.071-5.025,7.408-10.748,10.254-17.086l0.341,0.936
			c-2.926,6.125-6.075,11.601-10.1,16.477c1.185,0.787,2.376,1.611,3.574,2.475c2.966-3.747,6.036-7.954,8.365-12.461l0.247,0.965
			c-2.238,4.267-5.326,8.296-8.111,11.86c1.234,0.869,2.337,1.792,3.431,2.752c2.294-2.505,4.025-5.146,5.997-8l0.152,0.982
			c-1.809,2.631-3.546,5.09-5.687,7.423c1.105,0.971,2.213,1.98,3.319,3.027c1.059-1.211,2.112-2.466,3.159-3.762l0.055,0.991
			l-2.75,3.214l3.049,3.014L817.225,437.488z"/>
	</g>
</g>
</svg>
